# Blender v2.79 (sub 0) OBJ File: 'Box.blend'
# www.blender.org
mtllib Box.mtl
o Cube.002_Cube.003
v -0.997172 0.999122 0.600996
v -0.997172 1.099122 0.600996
v -0.605289 0.999122 -1.006570
v -0.605289 1.099122 -1.006570
v 0.610394 0.999122 0.992878
v 0.610394 1.099122 0.992878
v 1.002276 0.999122 -0.614687
v 1.002276 1.099122 -0.614687
v -1.213926 1.072764 0.742408
v -1.213926 1.192764 0.742408
v -0.740250 1.072764 -1.200690
v -0.740250 1.192764 -1.200690
v 0.729172 1.072764 1.216084
v 0.729172 1.192764 1.216084
v 1.202848 1.072764 -0.727014
v 1.202848 1.192764 -0.727014
vn -0.9715 0.0000 -0.2368
vn 0.2368 0.0000 -0.9715
vn 0.9715 0.0000 0.2368
vn -0.2368 0.0000 0.9715
vn 0.0000 -1.0000 -0.0000
vn 0.0000 1.0000 0.0000
usemtl Material.001
s off
f 1//1 2//1 4//1 3//1
f 3//2 4//2 8//2 7//2
f 7//3 8//3 6//3 5//3
f 5//4 6//4 2//4 1//4
f 3//5 7//5 5//5 1//5
f 8//6 4//6 2//6 6//6
f 9//1 10//1 12//1 11//1
f 11//2 12//2 16//2 15//2
f 15//3 16//3 14//3 13//3
f 13//4 14//4 10//4 9//4
f 11//5 15//5 13//5 9//5
f 16//6 12//6 10//6 14//6
o Cube
v -0.854758 -0.624230 0.848864
v -0.854758 -0.624230 -0.860653
v 0.854758 -0.624230 0.848864
v 0.854758 -0.624230 -0.860653
v 1.000000 -1.000000 -1.000000
v 1.000000 -1.000000 1.000000
v -1.000000 -1.000000 1.000000
v -1.000000 -1.000000 -1.000000
v 1.000000 1.000000 -0.999999
v 0.999999 1.000000 1.000001
v -1.000000 1.000000 1.000000
v -1.000000 1.000000 -1.000000
v -0.854758 1.000000 0.848864
v 0.854758 1.000000 0.848864
v -0.854758 1.000000 -0.860653
v -0.854758 1.000000 -0.854758
v 0.854758 1.000000 -0.860653
vn 1.0000 0.0000 0.0000
vn 0.0000 0.0000 1.0000
vn -1.0000 0.0000 0.0000
vn 0.0000 0.0000 -1.0000
vn 0.0000 1.0000 0.0000
vn 0.0000 -1.0000 0.0000
usemtl Material
s off
f 17//7 18//7 31//7 32//7 29//7
f 18//8 20//8 33//8 31//8
f 20//9 19//9 30//9 33//9
f 19//10 17//10 29//10 30//10
f 18//11 17//11 19//11 20//11
f 21//12 22//12 23//12 24//12
f 25//11 28//11 32//11 31//11 33//11
f 21//7 25//7 26//7 22//7
f 22//8 26//8 27//8 23//8
f 23//9 27//9 28//9 24//9
f 25//10 21//10 24//10 28//10
f 33//11 30//11 29//11 32//11 28//11 27//11 26//11 25//11
