# Blender v2.79 (sub 0) OBJ File: 'pills.blend'
# www.blender.org
mtllib pills.mtl
o Cube.015
v 0.597094 0.160964 -0.755011
v 0.597094 0.027324 -0.755011
v 0.597094 0.160964 -0.600619
v 0.597094 0.027324 -0.600619
v 0.442702 0.160964 -0.755011
v 0.442702 0.027324 -0.755011
v 0.442702 0.160964 -0.600619
v 0.442702 0.027324 -0.600619
vn 1.0000 0.0000 0.0000
vn 0.0000 0.0000 1.0000
vn -1.0000 0.0000 0.0000
vn 0.0000 0.0000 -1.0000
vn 0.0000 1.0000 0.0000
vn 0.0000 -1.0000 0.0000
usemtl Material.001
s off
f 1//1 3//1 4//1 2//1
f 3//2 7//2 8//2 4//2
f 7//3 5//3 6//3 8//3
f 5//4 1//4 2//4 6//4
f 3//5 1//5 5//5 7//5
f 8//6 6//6 2//6 4//6
o Cube.014
v 0.146880 0.160964 -0.755011
v 0.146880 0.027324 -0.755011
v 0.146880 0.160964 -0.600619
v 0.146880 0.027324 -0.600619
v -0.007512 0.160964 -0.755011
v -0.007512 0.027324 -0.755011
v -0.007512 0.160964 -0.600619
v -0.007512 0.027324 -0.600619
vn 1.0000 0.0000 0.0000
vn 0.0000 0.0000 1.0000
vn -1.0000 0.0000 0.0000
vn 0.0000 0.0000 -1.0000
vn 0.0000 1.0000 0.0000
vn 0.0000 -1.0000 0.0000
usemtl Material.001
s off
f 9//7 11//7 12//7 10//7
f 11//8 15//8 16//8 12//8
f 15//9 13//9 14//9 16//9
f 13//10 9//10 10//10 14//10
f 11//11 9//11 13//11 15//11
f 16//12 14//12 10//12 12//12
o Cube.013
v -0.267800 0.160964 -0.755011
v -0.267800 0.027324 -0.755011
v -0.267800 0.160964 -0.600619
v -0.267800 0.027324 -0.600619
v -0.422192 0.160964 -0.755011
v -0.422192 0.027324 -0.755011
v -0.422192 0.160964 -0.600619
v -0.422192 0.027324 -0.600619
vn 1.0000 0.0000 0.0000
vn 0.0000 0.0000 1.0000
vn -1.0000 0.0000 0.0000
vn 0.0000 0.0000 -1.0000
vn 0.0000 1.0000 0.0000
vn 0.0000 -1.0000 0.0000
usemtl Material.001
s off
f 17//13 19//13 20//13 18//13
f 19//14 23//14 24//14 20//14
f 23//15 21//15 22//15 24//15
f 21//16 17//16 18//16 22//16
f 19//17 17//17 21//17 23//17
f 24//18 22//18 18//18 20//18
o Cube.012
v -0.267800 0.171340 -0.402547
v -0.267800 0.016948 -0.402547
v -0.267800 0.171340 -0.248155
v -0.267800 0.016948 -0.248155
v -0.422192 0.171340 -0.402547
v -0.422192 0.016948 -0.402547
v -0.422192 0.171340 -0.248155
v -0.422192 0.016948 -0.248155
vn 1.0000 0.0000 0.0000
vn 0.0000 0.0000 1.0000
vn -1.0000 0.0000 0.0000
vn 0.0000 0.0000 -1.0000
vn 0.0000 1.0000 0.0000
vn 0.0000 -1.0000 0.0000
usemtl Material.001
s off
f 25//19 27//19 28//19 26//19
f 27//20 31//20 32//20 28//20
f 31//21 29//21 30//21 32//21
f 29//22 25//22 26//22 30//22
f 27//23 25//23 29//23 31//23
f 32//24 30//24 26//24 28//24
o Cube.011
v 0.146880 0.171340 -0.402547
v 0.146880 0.016948 -0.402547
v 0.146880 0.171340 -0.248155
v 0.146880 0.016948 -0.248155
v -0.007512 0.171340 -0.402547
v -0.007512 0.016948 -0.402547
v -0.007512 0.171340 -0.248155
v -0.007512 0.016948 -0.248155
vn 1.0000 0.0000 0.0000
vn 0.0000 0.0000 1.0000
vn -1.0000 0.0000 0.0000
vn 0.0000 0.0000 -1.0000
vn 0.0000 1.0000 0.0000
vn 0.0000 -1.0000 0.0000
usemtl Material.001
s off
f 33//25 35//25 36//25 34//25
f 35//26 39//26 40//26 36//26
f 39//27 37//27 38//27 40//27
f 37//28 33//28 34//28 38//28
f 35//29 33//29 37//29 39//29
f 40//30 38//30 34//30 36//30
o Cube.010
v 0.597094 0.171340 -0.402547
v 0.597094 0.016948 -0.402547
v 0.597094 0.171340 -0.248155
v 0.597094 0.016948 -0.248155
v 0.442702 0.171340 -0.402547
v 0.442702 0.016948 -0.402547
v 0.442702 0.171340 -0.248155
v 0.442702 0.016948 -0.248155
vn 1.0000 0.0000 0.0000
vn 0.0000 0.0000 1.0000
vn -1.0000 0.0000 0.0000
vn 0.0000 0.0000 -1.0000
vn 0.0000 1.0000 0.0000
vn 0.0000 -1.0000 0.0000
usemtl Material.001
s off
f 41//31 43//31 44//31 42//31
f 43//32 47//32 48//32 44//32
f 47//33 45//33 46//33 48//33
f 45//34 41//34 42//34 46//34
f 43//35 41//35 45//35 47//35
f 48//36 46//36 42//36 44//36
o Cube.009
v 0.597094 0.171340 -0.050109
v 0.597094 0.016948 -0.050109
v 0.597094 0.171340 0.104283
v 0.597094 0.016948 0.104283
v 0.442702 0.171340 -0.050109
v 0.442702 0.016948 -0.050109
v 0.442702 0.171340 0.104283
v 0.442702 0.016948 0.104283
vn 1.0000 0.0000 0.0000
vn 0.0000 0.0000 1.0000
vn -1.0000 0.0000 0.0000
vn 0.0000 0.0000 -1.0000
vn 0.0000 1.0000 0.0000
vn 0.0000 -1.0000 0.0000
usemtl Material.001
s off
f 49//37 51//37 52//37 50//37
f 51//38 55//38 56//38 52//38
f 55//39 53//39 54//39 56//39
f 53//40 49//40 50//40 54//40
f 51//41 49//41 53//41 55//41
f 56//42 54//42 50//42 52//42
o Cube.008
v 0.146880 0.171340 -0.050109
v 0.146880 0.016948 -0.050109
v 0.146880 0.171340 0.104283
v 0.146880 0.016948 0.104283
v -0.007512 0.171340 -0.050109
v -0.007512 0.016948 -0.050109
v -0.007512 0.171340 0.104283
v -0.007512 0.016948 0.104283
vn 1.0000 0.0000 0.0000
vn 0.0000 0.0000 1.0000
vn -1.0000 0.0000 0.0000
vn 0.0000 0.0000 -1.0000
vn 0.0000 1.0000 0.0000
vn 0.0000 -1.0000 0.0000
usemtl Material.001
s off
f 57//43 59//43 60//43 58//43
f 59//44 63//44 64//44 60//44
f 63//45 61//45 62//45 64//45
f 61//46 57//46 58//46 62//46
f 59//47 57//47 61//47 63//47
f 64//48 62//48 58//48 60//48
o Cube.007
v -0.267800 0.171340 -0.050109
v -0.267800 0.016948 -0.050109
v -0.267800 0.171340 0.104283
v -0.267800 0.016948 0.104283
v -0.422192 0.171340 -0.050109
v -0.422192 0.016948 -0.050109
v -0.422192 0.171340 0.104283
v -0.422192 0.016948 0.104283
vn 1.0000 0.0000 0.0000
vn 0.0000 0.0000 1.0000
vn -1.0000 0.0000 0.0000
vn 0.0000 0.0000 -1.0000
vn 0.0000 1.0000 0.0000
vn 0.0000 -1.0000 0.0000
usemtl Material.001
s off
f 65//49 67//49 68//49 66//49
f 67//50 71//50 72//50 68//50
f 71//51 69//51 70//51 72//51
f 69//52 65//52 66//52 70//52
f 67//53 65//53 69//53 71//53
f 72//54 70//54 66//54 68//54
o Cube.006
v -0.267800 0.171340 0.385262
v -0.267800 0.016948 0.385262
v -0.267800 0.171340 0.539654
v -0.267800 0.016948 0.539654
v -0.422192 0.171340 0.385262
v -0.422192 0.016948 0.385262
v -0.422192 0.171340 0.539654
v -0.422192 0.016948 0.539654
vn 1.0000 0.0000 0.0000
vn 0.0000 0.0000 1.0000
vn -1.0000 0.0000 0.0000
vn 0.0000 0.0000 -1.0000
vn 0.0000 1.0000 0.0000
vn 0.0000 -1.0000 0.0000
usemtl Material.001
s off
f 73//55 75//55 76//55 74//55
f 75//56 79//56 80//56 76//56
f 79//57 77//57 78//57 80//57
f 77//58 73//58 74//58 78//58
f 75//59 73//59 77//59 79//59
f 80//60 78//60 74//60 76//60
o Cube.005
v 0.146880 0.171340 0.385262
v 0.146880 0.016948 0.385262
v 0.146880 0.171340 0.539654
v 0.146880 0.016948 0.539654
v -0.007512 0.171340 0.385262
v -0.007512 0.016948 0.385262
v -0.007512 0.171340 0.539654
v -0.007512 0.016948 0.539654
vn 1.0000 0.0000 0.0000
vn 0.0000 0.0000 1.0000
vn -1.0000 0.0000 0.0000
vn 0.0000 0.0000 -1.0000
vn 0.0000 1.0000 0.0000
vn 0.0000 -1.0000 0.0000
usemtl Material.001
s off
f 81//61 83//61 84//61 82//61
f 83//62 87//62 88//62 84//62
f 87//63 85//63 86//63 88//63
f 85//64 81//64 82//64 86//64
f 83//65 81//65 85//65 87//65
f 88//66 86//66 82//66 84//66
o Cube.004
v 0.597094 0.171340 0.385262
v 0.597094 0.016948 0.385262
v 0.597094 0.171340 0.539654
v 0.597094 0.016948 0.539654
v 0.442702 0.171340 0.385262
v 0.442702 0.016948 0.385262
v 0.442702 0.171340 0.539654
v 0.442702 0.016948 0.539654
vn 1.0000 0.0000 0.0000
vn 0.0000 0.0000 1.0000
vn -1.0000 0.0000 0.0000
vn 0.0000 0.0000 -1.0000
vn 0.0000 1.0000 0.0000
vn 0.0000 -1.0000 0.0000
usemtl Material.001
s off
f 89//67 91//67 92//67 90//67
f 91//68 95//68 96//68 92//68
f 95//69 93//69 94//69 96//69
f 93//70 89//70 90//70 94//70
f 91//71 89//71 93//71 95//71
f 96//72 94//72 90//72 92//72
o Cube.003
v 0.597094 0.171340 0.820633
v 0.597094 0.016948 0.820633
v 0.597094 0.171340 0.975025
v 0.597094 0.016948 0.975025
v 0.442702 0.171340 0.820633
v 0.442702 0.016948 0.820633
v 0.442702 0.171340 0.975025
v 0.442702 0.016948 0.975025
vn 1.0000 0.0000 0.0000
vn 0.0000 0.0000 1.0000
vn -1.0000 0.0000 0.0000
vn 0.0000 0.0000 -1.0000
vn 0.0000 1.0000 0.0000
vn 0.0000 -1.0000 0.0000
usemtl Material.001
s off
f 97//73 99//73 100//73 98//73
f 99//74 103//74 104//74 100//74
f 103//75 101//75 102//75 104//75
f 101//76 97//76 98//76 102//76
f 99//77 97//77 101//77 103//77
f 104//78 102//78 98//78 100//78
o Cube.002
v 0.146880 0.171340 0.820633
v 0.146880 0.016948 0.820633
v 0.146880 0.171340 0.975025
v 0.146880 0.016948 0.975025
v -0.007512 0.171340 0.820633
v -0.007512 0.016948 0.820633
v -0.007512 0.171340 0.975025
v -0.007512 0.016948 0.975025
vn 1.0000 0.0000 0.0000
vn 0.0000 0.0000 1.0000
vn -1.0000 0.0000 0.0000
vn 0.0000 0.0000 -1.0000
vn 0.0000 1.0000 0.0000
vn 0.0000 -1.0000 0.0000
usemtl Material.001
s off
f 105//79 107//79 108//79 106//79
f 107//80 111//80 112//80 108//80
f 111//81 109//81 110//81 112//81
f 109//82 105//82 106//82 110//82
f 107//83 105//83 109//83 111//83
f 112//84 110//84 106//84 108//84
o Cube.001
v -0.267800 0.171340 0.820633
v -0.267800 0.016948 0.820633
v -0.267800 0.171340 0.975025
v -0.267800 0.016948 0.975025
v -0.422192 0.171340 0.820633
v -0.422192 0.016948 0.820633
v -0.422192 0.171340 0.975025
v -0.422192 0.016948 0.975025
vn 1.0000 0.0000 0.0000
vn 0.0000 0.0000 1.0000
vn -1.0000 0.0000 0.0000
vn 0.0000 0.0000 -1.0000
vn 0.0000 1.0000 0.0000
vn 0.0000 -1.0000 0.0000
usemtl Material.001
s off
f 113//85 115//85 116//85 114//85
f 115//86 119//86 120//86 116//86
f 119//87 117//87 118//87 120//87
f 117//88 113//88 114//88 118//88
f 115//89 113//89 117//89 119//89
f 120//90 118//90 114//90 116//90
o Cube
v 0.729583 0.070709 -1.368379
v 0.729583 0.070709 1.368379
v -0.563599 0.070709 1.368379
v -0.563599 0.070709 -1.368380
v 0.729583 -0.070709 -1.368379
v 0.729582 -0.070709 1.368380
v -0.563599 -0.070709 1.368379
v -0.563599 -0.070709 -1.368379
vn 0.0000 1.0000 0.0000
vn 0.0000 -1.0000 -0.0000
vn 1.0000 0.0000 0.0000
vn -0.0000 0.0000 1.0000
vn -1.0000 0.0000 -0.0000
vn 0.0000 -0.0000 -1.0000
usemtl Material
s off
f 121//91 124//91 123//91 122//91
f 125//92 126//92 127//92 128//92
f 121//93 122//93 126//93 125//93
f 122//94 123//94 127//94 126//94
f 123//95 124//95 128//95 127//95
f 125//96 128//96 124//96 121//96
