# Blender v2.79 (sub 0) OBJ File: ''
# www.blender.org
mtllib untitled.mtl
o Cube_Cube.001
v -1.000000 1.743562 0.760551
v -1.000000 3.743562 0.760551
v -0.109782 1.743562 0.760551
v -0.109782 3.743562 0.760551
v -0.825514 0.332850 0.672708
v -0.825514 2.069994 0.672708
v -0.825514 0.332850 0.082441
v -0.825514 2.069994 0.082441
v -0.235247 0.332850 0.672708
v -0.235247 2.069994 0.672708
v -0.235247 0.332850 0.082441
v -0.235247 2.069994 0.082441
v -0.767047 2.115208 0.975364
v -0.767047 3.484014 0.975364
v -0.767047 2.115208 0.663411
v -0.767047 3.484014 0.663411
v -0.455094 2.115208 0.975364
v -0.455094 3.484014 0.975364
v -0.455094 2.115208 0.663411
v -0.455094 3.484014 0.663411
v -0.128383 4.130672 0.098616
v -0.218358 3.716548 0.110884
v -0.218358 4.328853 0.305646
v -0.218358 3.716548 0.305646
v -0.128383 4.247938 0.098616
v -0.830663 3.716548 0.110884
v -0.830663 4.328853 0.305646
v -0.830663 3.716548 0.305646
v -0.218358 4.328853 -0.000507
v -0.218358 3.716548 -0.000507
v -0.830663 4.328853 -0.000507
v -0.830663 3.716548 -0.000507
v -0.128383 4.247938 0.215883
v -0.128383 4.130672 0.215883
v -0.245650 4.247938 0.098616
v -0.245650 4.130672 0.098616
v -0.245650 4.247938 0.215883
v -0.245650 4.130672 0.215883
v -1.000000 1.743562 -0.760551
v -1.000000 3.743562 -0.760551
v -0.109782 1.743562 -0.760551
v -0.109782 3.743562 -0.760551
v -1.000000 1.743562 0.000000
v -1.000000 3.743562 0.000000
v -0.109782 1.743562 0.000000
v -0.109782 3.743562 0.000000
v -0.825514 0.332850 -0.672708
v -0.825514 2.069994 -0.672708
v -0.825514 0.332850 -0.082441
v -0.825514 2.069994 -0.082441
v -0.235247 0.332850 -0.672708
v -0.235247 2.069994 -0.672708
v -0.235247 0.332850 -0.082441
v -0.235247 2.069994 -0.082441
v -0.767047 2.115208 -0.975364
v -0.767047 3.484014 -0.975364
v -0.767047 2.115208 -0.663411
v -0.767047 3.484014 -0.663411
v -0.455094 2.115208 -0.975364
v -0.455094 3.484014 -0.975364
v -0.455094 2.115208 -0.663411
v -0.455094 3.484014 -0.663411
v -0.128383 4.130672 -0.098616
v -0.218358 3.716548 -0.110884
v -0.218358 4.328853 -0.305646
v -0.218358 3.716548 -0.305646
v -0.128383 4.247938 -0.098616
v -0.830663 3.716548 -0.110884
v -0.830663 4.328853 -0.305646
v -0.830663 3.716548 -0.305646
v -0.218358 4.328853 0.000507
v -0.218358 3.716548 0.000507
v -0.830663 4.328853 0.000507
v -0.830663 3.716548 0.000507
v -0.128383 4.247938 -0.215883
v -0.128383 4.130672 -0.215883
v -0.245650 4.247938 -0.098616
v -0.245650 4.130672 -0.098616
v -0.245650 4.247938 -0.215883
v -0.245650 4.130672 -0.215883
vn 1.0000 0.0000 0.0000
vn 0.0000 0.0000 1.0000
vn 0.0000 -1.0000 0.0000
vn 0.0000 1.0000 0.0000
vn -1.0000 0.0000 0.0000
vn 0.0000 0.0000 -1.0000
usemtl Material.001
s off
f 45//1 46//1 4//1 3//1
f 3//2 4//2 2//2 1//2
f 43//3 45//3 3//3 1//3
f 46//4 44//4 2//4 4//4
f 1//5 2//5 44//5 43//5
f 5//5 6//5 8//5 7//5
f 7//6 8//6 12//6 11//6
f 11//1 12//1 10//1 9//1
f 9//2 10//2 6//2 5//2
f 7//3 11//3 9//3 5//3
f 12//4 8//4 6//4 10//4
f 13//5 14//5 16//5 15//5
f 15//6 16//6 20//6 19//6
f 19//1 20//1 18//1 17//1
f 17//2 18//2 14//2 13//2
f 15//3 19//3 17//3 13//3
f 20//4 16//4 14//4 18//4
f 29//5 30//5 24//5 23//5
f 23//6 24//6 28//6 27//6
f 25//5 21//5 34//5 33//5
f 33//6 34//6 38//6 37//6
f 37//1 38//1 36//1 35//1
f 32//3 30//3 22//3 26//3
f 28//4 24//4 30//4 32//4
f 23//3 27//3 31//3 29//3
f 27//1 28//1 32//1 31//1
f 35//2 36//2 21//2 25//2
f 33//3 37//3 35//3 25//3
f 38//4 34//4 21//4 36//4
f 45//1 41//1 42//1 46//1
f 41//6 39//6 40//6 42//6
f 43//3 39//3 41//3 45//3
f 46//4 42//4 40//4 44//4
f 39//5 43//5 44//5 40//5
f 47//5 49//5 50//5 48//5
f 49//2 53//2 54//2 50//2
f 53//1 51//1 52//1 54//1
f 51//6 47//6 48//6 52//6
f 49//3 47//3 51//3 53//3
f 54//4 52//4 48//4 50//4
f 55//5 57//5 58//5 56//5
f 57//2 61//2 62//2 58//2
f 61//1 59//1 60//1 62//1
f 59//6 55//6 56//6 60//6
f 57//3 55//3 59//3 61//3
f 62//4 60//4 56//4 58//4
f 71//5 65//5 66//5 72//5
f 65//2 69//2 70//2 66//2
f 67//5 75//5 76//5 63//5
f 75//2 79//2 80//2 76//2
f 79//1 77//1 78//1 80//1
f 74//3 68//3 64//3 72//3
f 70//4 74//4 72//4 66//4
f 65//3 71//3 73//3 69//3
f 69//1 73//1 74//1 70//1
f 77//6 67//6 63//6 78//6
f 75//3 67//3 77//3 79//3
f 80//4 78//4 63//4 76//4
